<svg xmlns="http://www.w3.org/2000/svg" width="40.415" height="43.045" viewBox="0 0 40.415 43.045">
    <path d="M16.316,35.753C6.8,38.606,6.8,31,3,30.046M29.633,41.46V34.1a6.411,6.411,0,0,0-1.788-4.965C33.818,28.467,40.1,26.2,40.1,15.816a10.348,10.348,0,0,0-2.852-7.132,9.645,9.645,0,0,0-.173-7.173S34.826.845,29.633,4.326a25.453,25.453,0,0,0-13.316,0C11.123.845,8.878,1.511,8.878,1.511a9.645,9.645,0,0,0-.171,7.172,10.349,10.349,0,0,0-2.854,7.191c0,10.311,6.278,12.574,12.251,13.316A6.411,6.411,0,0,0,16.316,34.1V41.46"
          transform="translate(-1.181 0.086)" fill="none" stroke="#00c" stroke-linecap="round" stroke-linejoin="round"
          stroke-width="3"/>
</svg>
